<?xml version="1.0" encoding="utf-8"?>
<!-- Generator: Adobe Illustrator 24.0.1, SVG Export Plug-In . SVG Version: 6.00 Build 0)  -->
<svg version="1.1" id="Camada_1" xmlns="http://www.w3.org/2000/svg" xmlns:xlink="http://www.w3.org/1999/xlink" x="0px" y="0px"
	 viewBox="0 0 229 229" style="enable-background:new 0 0 229 229;" xml:space="preserve">
<style type="text/css">
	.st0{fill:#1A1A1A;}
	.st1{fill:#E7285C;}
	.st2{fill:#FFFFFF;}
</style>
<g>
	<path class="st0" d="M142.9,144.6c-19.1,13.2-41.8,11-55.2-5.2c-12.6-15.2-11.3-38.9,2.7-52.8c11.5-11.4,37.6-17.2,53.3-1
		c0.2-0.4,0.6-0.8,0.6-1.2c0.5-7.9,0.5-7.9,8.3-7.9c5.2,0,10.3,0.1,15.5,0c2.4-0.1,3.1,0.6,3.1,3c-0.2,23,0.3,45.9-0.4,68.9
		c-0.7,22.7-14.2,36.4-36.8,39.2c-16.4,2-32.1,0.1-46.9-7.6c-3.1-1.6-3.5-3.1-1.7-6.1c2.5-4.1,4.6-8.5,6.6-12.9
		c1.2-2.5,2.2-2.9,4.7-1.3c8.9,5.6,18.8,7.4,29.1,6.5C137.6,165.4,143.2,158.3,142.9,144.6z"/>
	<path class="st0" d="M36.9,58.9c4.5,0,10.5-1.8,13,0.5c3,2.6,0.8,8.7,0.9,13.3c0.2,6.9,0,6.8,6.7,6.9c3.8,0.1,8.9-1.7,11,0.8
		c1.9,2.3,0.7,7.3,0.7,11c0,9.1,0,9.1-9.4,9.1c-9,0-9,0-9,9.1c0,5.8,0,11.7,0,17.5c0.1,8.7,5.2,12.6,13.4,9.7
		c3.3-1.2,4.5-0.5,5.4,2.7c1.1,4,2.5,7.9,4.2,11.7c1.3,3,0.7,4.4-2.4,5.4c-10.8,3.8-21.5,4-32.2-0.1c-10.7-4.1-15.7-12.6-16.3-23.6
		c-0.5-9.3-0.4-18.6-0.1-27.9c0.1-3.9-1.1-4.7-4.8-4.6c-7.2,0.3-7.2,0-7.2-7.2c0-3.5,0.2-7-0.1-10.5c-0.2-2.8,0.9-3.2,3.4-3.3
		c8.5-0.1,8.5-0.2,8.5-8.5c0-4-1.3-9.1,0.7-11.6c2.1-2.6,7.5-0.5,11.4-0.8c0.7,0,1.3,0,2,0C36.9,58.7,36.9,58.8,36.9,58.9z"/>
	<path class="st1" d="M201.4,125.5c10-0.1,17.1,6.9,17.2,16.7c0.1,9.7-7.2,17.1-16.8,17.2c-9.7,0.1-17.1-7.2-17.2-16.9
		C184.5,132.7,191.5,125.6,201.4,125.5z"/>
	<path class="st2" d="M125.6,98.4c10.8,0,17.7,6.2,17.7,16c0,9.9-7,16.4-17.9,16.3c-10.5,0-17.7-6.5-17.8-16
		C107.4,104.9,114.7,98.4,125.6,98.4z"/>
</g>
</svg>
