<svg xmlns="http://www.w3.org/2000/svg" version="1.1" xmlns:xlink="http://www.w3.org/1999/xlink" xmlns:svgjs="http://svgjs.com/svgjs" width="1440" height="1024" preserveAspectRatio="none" viewBox="0 0 1440 1024"><g mask="url(&quot;#SvgjsMask1012&quot;)" fill="none"><rect width="1440" height="1024" x="0" y="0" fill="url(#SvgjsLinearGradient1013)"></rect><path d="M727.222,772.902C774.904,777.485,828.914,775.346,856.096,735.903C886.107,692.357,883.787,632.07,854.733,587.879C827.993,547.207,775.897,539.668,727.222,539.886C679.056,540.102,624.125,546.399,601.673,589.012C580.018,630.112,608.939,676.298,635.133,714.665C657.082,746.814,688.474,769.178,727.222,772.902" fill="rgba(255, 92, 193, 0.2)" class="triangle-float2"></path><path d="M918.682,1113.505C979.119,1110.926,1035.776,1087.413,1070.001,1037.534C1109.927,979.348,1136.076,906.012,1104.285,843.012C1069.936,774.942,994.685,731.578,918.682,737.664C850.19,743.149,811.827,809.145,778.293,869.117C745.912,927.026,710.158,993.951,743.206,1051.481C776.327,1109.137,852.25,1116.34,918.682,1113.505" fill="rgba(255, 92, 193, 0.2)" class="triangle-float3"></path><path d="M518.989,148.446C560.938,147.218,591.626,113.022,611.503,76.061C630.15,41.386,636.272,0.391,617.102,-33.998C597.459,-69.236,559.332,-89.851,518.989,-89.898C478.563,-89.945,441.186,-68.947,420.477,-34.228C399.237,1.381,396.915,45.27,416.596,81.765C437.317,120.189,475.353,149.723,518.989,148.446" fill="rgba(255, 92, 193, 0.2)" class="triangle-float2"></path><path d="M206.687,331.199C259.22,329.148,296.957,288.06,324.851,243.497C355.228,194.967,384.574,138.517,359.517,87.038C332.074,30.656,269.39,0.125,206.687,0.733C145.017,1.331,88.023,35.586,58.908,89.954C31.262,141.579,40.795,203.455,71.385,253.392C100.513,300.942,150.967,333.374,206.687,331.199" fill="rgba(255, 92, 193, 0.2)" class="triangle-float2"></path><path d="M251.763,434.299C281.449,432.041,300.043,404.918,313.562,378.393C325.567,354.84,331.144,327.408,317.905,304.526C304.684,281.676,278.16,271.899,251.763,271.584C224.713,271.261,198.114,280.595,182.83,302.915C165.251,328.586,156.754,361.67,171.209,389.221C186.531,418.424,218.879,436.8,251.763,434.299" fill="rgba(255, 92, 193, 0.2)" class="triangle-float2"></path><path d="M1343.886,880.337C1438.637,875.867,1492.604,783.165,1539.304,700.601C1584.968,619.869,1630.539,529.14,1589.612,445.906C1544.814,354.799,1445.175,296.262,1343.886,303.175C1251.362,309.49,1194.893,394.691,1150.115,475.903C1107.425,553.328,1075.484,640.947,1113.686,720.682C1156.931,810.943,1243.911,885.054,1343.886,880.337" fill="rgba(255, 92, 193, 0.2)" class="triangle-float1"></path></g><defs><mask id="SvgjsMask1012"><rect width="1440" height="1024" fill="#ffffff"></rect></mask><linearGradient x1="7.22%" y1="-10.16%" x2="92.78%" y2="110.16%" gradientUnits="userSpaceOnUse" id="SvgjsLinearGradient1013"><stop stop-color="rgba(25, 56, 242, 1)" offset="0"></stop><stop stop-color="rgba(255, 21, 88, 1)" offset="1"></stop></linearGradient><style>
            @keyframes float1 {
                0%{transform: translate(0, 0)}
                50%{transform: translate(-10px, 0)}
                100%{transform: translate(0, 0)}
            }

            .triangle-float1 {
                animation: float1 5s infinite;
            }

            @keyframes float2 {
                0%{transform: translate(0, 0)}
                50%{transform: translate(-5px, -5px)}
                100%{transform: translate(0, 0)}
            }

            .triangle-float2 {
                animation: float2 4s infinite;
            }

            @keyframes float3 {
                0%{transform: translate(0, 0)}
                50%{transform: translate(0, -10px)}
                100%{transform: translate(0, 0)}
            }

            .triangle-float3 {
                animation: float3 6s infinite;
            }
        </style></defs></svg>