<svg xmlns="http://www.w3.org/2000/svg" version="1.1" xmlns:xlink="http://www.w3.org/1999/xlink" xmlns:svgjs="http://svgjs.com/svgjs" width="1440" height="560" preserveAspectRatio="none" viewBox="0 0 1440 560"><g mask="url(&quot;#SvgjsMask1190&quot;)" fill="none"><rect width="1440" height="560" x="0" y="0" fill="url(#SvgjsLinearGradient1191)"></rect><path d="M1029.462,633.161C1072.343,632.782,1107.859,602.73,1128.278,565.021C1147.67,529.209,1147.191,486.995,1128.084,451.03C1107.615,412.502,1073.082,378.198,1029.462,379.017C986.815,379.818,957.398,417.126,937.055,454.618C917.874,489.969,909.089,531.074,927.576,566.793C947.544,605.374,986.022,633.545,1029.462,633.161" fill="rgba(255, 92, 193, 0.2)" class="triangle-float1"></path><path d="M214.427,558.794C262.994,557.865,294.735,512.856,317.221,469.798C337.67,430.641,344.971,385.987,325.334,346.417C303.262,301.94,264.08,262.852,214.427,262.66C164.53,262.467,125.043,301.283,102.021,345.552C80.866,386.23,83.211,433.303,104.591,473.863C127.721,517.743,164.833,559.742,214.427,558.794" fill="rgba(255, 92, 193, 0.2)" class="triangle-float3"></path><path d="M969.331,168.964C1009.265,167.052,1039.41,136.775,1058.882,101.857C1077.749,68.025,1086.014,27.514,1067.047,-6.262C1047.737,-40.649,1008.735,-59.261,969.331,-57.613C932.545,-56.074,904.361,-29.843,884.816,1.359C863.597,35.234,845.584,75.518,863.581,111.209C882.963,149.647,926.332,171.023,969.331,168.964" fill="rgba(255, 92, 193, 0.2)" class="triangle-float1"></path><path d="M542.31,633.186C573.709,632.049,599.264,608.768,612.588,580.313C624.087,555.755,615.341,528.879,602.279,505.115C588.545,480.13,570.74,454.607,542.31,452.462C510.709,450.077,480.57,467.503,464.308,494.704C447.616,522.625,446.664,557.399,462.629,585.742C478.889,614.609,509.201,634.385,542.31,633.186" fill="rgba(255, 92, 193, 0.2)" class="triangle-float1"></path><path d="M256.474,227.852C292.373,225.019,317.122,196.626,336.058,165.995C356.436,133.03,378.188,94.494,360.105,60.216C341.266,24.507,296.84,14.345,256.474,15.14C217.719,15.903,180.426,31.418,159.681,64.163C137.376,99.37,130.472,144.672,151.686,180.547C172.593,215.903,215.526,231.084,256.474,227.852" fill="rgba(255, 92, 193, 0.2)" class="triangle-float3"></path><path d="M1394.787,380.839C1442.698,379.44,1488.262,357.384,1512.141,315.825C1535.939,274.408,1535.133,222.11,1508.944,182.162C1484.884,145.462,1438.653,138.077,1394.787,136.816C1347.7,135.462,1295.608,136.613,1268.664,175.253C1238.454,218.577,1237.311,278.024,1264.93,323.044C1291.484,366.329,1344.028,382.321,1394.787,380.839" fill="rgba(255, 92, 193, 0.2)" class="triangle-float1"></path><path d="M1107.386,557.167C1155.358,559.731,1204.926,540.598,1228.493,498.736C1251.711,457.493,1238.664,407.667,1214.439,367.008C1190.894,327.49,1153.385,295.103,1107.386,295.472C1061.909,295.837,1024.42,328.443,1003.265,368.701C983.615,406.096,986.375,449.912,1006.803,486.887C1028.002,525.259,1063.61,554.827,1107.386,557.167" fill="rgba(255, 92, 193, 0.2)" class="triangle-float2"></path></g><defs><mask id="SvgjsMask1190"><rect width="1440" height="560" fill="#ffffff"></rect></mask><linearGradient x1="15.28%" y1="-39.29%" x2="84.72%" y2="139.29%" gradientUnits="userSpaceOnUse" id="SvgjsLinearGradient1191"><stop stop-color="rgba(25, 56, 242, 1)" offset="0"></stop><stop stop-color="rgba(255, 21, 88, 1)" offset="1"></stop></linearGradient><style>
            @keyframes float1 {
                0%{transform: translate(0, 0)}
                50%{transform: translate(-10px, 0)}
                100%{transform: translate(0, 0)}
            }

            .triangle-float1 {
                animation: float1 5s infinite;
            }

            @keyframes float2 {
                0%{transform: translate(0, 0)}
                50%{transform: translate(-5px, -5px)}
                100%{transform: translate(0, 0)}
            }

            .triangle-float2 {
                animation: float2 4s infinite;
            }

            @keyframes float3 {
                0%{transform: translate(0, 0)}
                50%{transform: translate(0, -10px)}
                100%{transform: translate(0, 0)}
            }

            .triangle-float3 {
                animation: float3 6s infinite;
            }
        </style></defs></svg>