<?xml version="1.0" encoding="utf-8"?>
<!-- Generator: Adobe Illustrator 24.0.1, SVG Export Plug-In . SVG Version: 6.00 Build 0)  -->
<svg version="1.1" id="Camada_1" xmlns="http://www.w3.org/2000/svg" xmlns:xlink="http://www.w3.org/1999/xlink" x="0px" y="0px"
	 viewBox="0 0 150.6 161.9" style="enable-background:new 0 0 150.6 161.9;" xml:space="preserve">
<style type="text/css">
	.st0{clip-path:url(#SVGID_2_);fill:url(#SVGID_3_);}
</style>
<g>
	<g>
		<g>
			<g>
				<defs>
					<path id="SVGID_1_" d="M112.8,15.4c14.3,7.1,29.2,15.3,34.8,27.6c5.6,12.4,1.8,29,0,46.2c-1.9,17.3-2,35.2-10.8,45.5
						c-8.9,10.3-26.5,13.1-43.5,18c-16.9,4.9-33.2,11.8-46.5,8.1c-13.3-3.6-23.6-18-29.8-32C10.7,114.7,8.6,101,5.4,86.7
						C2.2,72.3-2,57.4,1,43.6C3.9,29.8,14,17.2,26.9,9.4s28.7-10.6,43.3-9C84.9,2.1,98.5,8.2,112.8,15.4z"/>
				</defs>
				<clipPath id="SVGID_2_">
					<use xlink:href="#SVGID_1_"  style="overflow:visible;"/>
				</clipPath>
				
					<linearGradient id="SVGID_3_" gradientUnits="userSpaceOnUse" x1="100.8521" y1="-812.351" x2="-297.9923" y2="-121.5321" gradientTransform="matrix(1 0 0 -1 0 -480.2444)">
					<stop  offset="0" style="stop-color:#FF0D59"/>
					<stop  offset="1" style="stop-color:#0038F8"/>
				</linearGradient>
				<rect x="-465.9" y="-250" class="st0" width="750" height="500"/>
			</g>
		</g>
	</g>
</g>
</svg>
