<?xml version="1.0" encoding="utf-8"?>
<!-- Generator: Adobe Illustrator 24.0.1, SVG Export Plug-In . SVG Version: 6.00 Build 0)  -->
<svg version="1.1" id="wave" xmlns="http://www.w3.org/2000/svg" xmlns:xlink="http://www.w3.org/1999/xlink" x="0px" y="0px"
	 viewBox="0 0 1440 220" style="enable-background:new 0 0 1440 220;" xml:space="preserve">
<style type="text/css">
	.st0{fill:#FFFFFF;}
	.st1{opacity:0.9;fill:#FFFFFF;enable-background:new    ;}
</style>
<path class="st0" d="M0,198l80-7.3c80-7.7,240-21.7,400-51.4C640,110,800,66,960,62.3c160-3.3,320,32.7,480,40.4
	C1600,110,1760,88,1920,88s320,22,480,14.7c160-7.7,320-43.7,480-62.4C3040,22,3200,22,3360,22s320,0,480,25.7
	c160,25.3,320,77.3,480,102.6c160,25.7,320,25.7,480,0c160-25.3,320-77.3,480-77c160-0.3,320,51.7,480,69.7s320,4,480-14.7
	C6400,110,6560,88,6720,99s320,55,480,62.3c160,7.7,320-22.3,480-44c160-22.3,320-36.3,480-22c160,14.7,320,58.7,480,58.7
	s320-44,480-77s320-55,480-58.7c160-3.3,320,10.7,480,33c160,21.7,320,51.7,480,66c160,14.7,320,14.7,480-7.3s320-66,400-88l80-22
	v220h-80c-80,0-240,0-400,0s-320,0-480,0s-320,0-480,0s-320,0-480,0s-320,0-480,0s-320,0-480,0s-320,0-480,0s-320,0-480,0
	s-320,0-480,0s-320,0-480,0s-320,0-480,0s-320,0-480,0s-320,0-480,0s-320,0-480,0s-320,0-480,0s-320,0-480,0s-320,0-480,0
	s-320,0-480,0s-320,0-480,0s-320,0-480,0s-320,0-480,0s-320,0-480,0s-320,0-480,0s-320,0-400,0H0V198z"/>
<path class="st1" d="M0,0l80,3.7C160,7,320,15,480,33s320,48,480,58.7c160,11.3,320,3.3,480,3.6c160-0.3,320,7.7,480-3.6
	C2080,81,2240,51,2400,40.3C2560,29,2720,37,2880,66s320,81,480,88s320-29,480-51.3C4000,81,4160,73,4320,84.3
	C4480,95,4640,125,4800,143s320,26,480,25.7c160,0.3,320-7.7,480-18.4c160-11.3,320-25.3,480-29.3s320,4,480,18.3
	c160,14.7,320,36.7,480,14.7s320-88,480-88s320,66,480,95.3c160,29.7,320,21.7,480-3.6C8800,132,8960,88,9120,88s320,44,480,58.7
	c160,14.3,320,0.3,480,0c160,0.3,320,14.3,480,0c160-14.7,320-58.7,480-80.7s320-22,400-22h80v176h-80c-80,0-240,0-400,0
	s-320,0-480,0s-320,0-480,0s-320,0-480,0s-320,0-480,0s-320,0-480,0s-320,0-480,0s-320,0-480,0s-320,0-480,0s-320,0-480,0
	s-320,0-480,0s-320,0-480,0s-320,0-480,0s-320,0-480,0s-320,0-480,0s-320,0-480,0s-320,0-480,0s-320,0-480,0s-320,0-480,0
	s-320,0-480,0s-320,0-480,0s-320,0-480,0s-320,0-480,0s-320,0-400,0H0V0z"/>
</svg>
