<?xml version="1.0" encoding="utf-8"?>
<!-- Generator: Adobe Illustrator 24.0.1, SVG Export Plug-In . SVG Version: 6.00 Build 0)  -->
<svg version="1.1" id="visual" xmlns="http://www.w3.org/2000/svg" xmlns:xlink="http://www.w3.org/1999/xlink" x="0px" y="0px"
	 viewBox="0 0 960 109.6" style="enable-background:new 0 0 960 109.6;" xml:space="preserve">
<style type="text/css">
	.st0{fill:#FFFFFF;}
</style>
<path class="st0" d="M0-1.4l16,9.5c16,9.5,48,28.5,80,38.7c32,10.1,64,11.5,96,3.8s64-24.3,96-33.8s64-11.9,96-4.2s64,25.3,96,29.5
	s64-5.2,96-12.5s64-12.7,96-9.8c32,2.8,64,13.8,96,15c32,1.1,64-7.5,96-11.9c32-4.3,64-4.3,80-4.3h16v92h-16c-16,0-48,0-80,0
	s-64,0-96,0s-64,0-96,0s-64,0-96,0s-64,0-96,0s-64,0-96,0s-64,0-96,0s-64,0-96,0s-64,0-96,0s-64,0-80,0H0V-1.4z"/>
</svg>
