<?xml version="1.0" encoding="utf-8"?>
<!-- Generator: Adobe Illustrator 24.0.1, SVG Export Plug-In . SVG Version: 6.00 Build 0)  -->
<svg version="1.1" id="visual" xmlns="http://www.w3.org/2000/svg" xmlns:xlink="http://www.w3.org/1999/xlink" x="0px" y="0px"
	 viewBox="0 0 1200 200" style="enable-background:new 0 0 1200 200;" xml:space="preserve">
<style type="text/css">
	.st0{fill:#FFFFFF;}
	.st1{opacity:0.25;fill:#FFFFFF;}
</style>
<path class="st0" d="M1200,21l-50,16.3c-50,16.4-150,49-250,62.7s-200,8.3-300-5.5S400,58.3,300,56.8S100,74.7,50,84.3L0,94L0,0h50
	c50,0,150,0,250,0s200,0,300,0c100,0,200,0,300,0c100,0,200,0,250,0h50V21z"/>
<path class="st1" d="M0,0l50,0c50,0,150,0,250,0c100,0,200,0,300,0s200,0,300,0c100,0,200,0,250,0l50,0v140.8l-50-9.7
	c-50-9.6-150-29-250-27.5s-200,23.9-300,37.7s-200,19.2-300,5.5S100,100.5,50,84.1L0,67.8L0,0z"/>
</svg>
