<?xml version="1.0" encoding="utf-8"?>
<!-- Generator: Adobe Illustrator 24.0.1, SVG Export Plug-In . SVG Version: 6.00 Build 0)  -->
<svg version="1.1" id="visual" xmlns="http://www.w3.org/2000/svg" xmlns:xlink="http://www.w3.org/1999/xlink" x="0px" y="0px"
	 viewBox="0 0 960 57.9" style="enable-background:new 0 0 960 57.9;" xml:space="preserve">
<style type="text/css">
	.st0{fill:#FFFFFF;}
</style>
<path class="st0" d="M0,24l20,0.3c20,0.4,60,1,100-3.3S200,7.3,240,6.5s80,6.8,120,17s80,22.8,120,18.7C520,38,560,17,600,17.8
	c40,0.9,80,23.5,120,26S800,28.7,840,18S920,3.7,940,1.8L960,0v57.9h-20c-20,0-60,0-100,0s-80,0-120,0s-80,0-120,0s-80,0-120,0
	s-80,0-120,0s-80,0-120,0s-80,0-120,0s-80,0-100,0H0V24z"/>
</svg>
