<?xml version="1.0" encoding="utf-8"?>
<!-- Generator: Adobe Illustrator 24.0.1, SVG Export Plug-In . SVG Version: 6.00 Build 0)  -->
<svg version="1.1" id="visual" xmlns="http://www.w3.org/2000/svg" xmlns:xlink="http://www.w3.org/1999/xlink" x="0px" y="0px"
	 viewBox="0 0 960 88.9" style="enable-background:new 0 0 960 88.9;" xml:space="preserve">
<style type="text/css">
	.st0{fill:#FFFFFF;}
</style>
<path class="st0" d="M0,16l13.3,6.7c13.4,6.6,40,20,66.7,26.8s53.3,7.2,80,2.3c26.7-4.8,53.3-14.8,80-24c26.7-9.1,53.3-17.5,80-9.5
	s53.3,32.4,80,33.7s53.3-20.3,80-29.3s53.3-5.4,80,2.5c26.7,7.8,53.3,19.8,80,24c26.7,4.1,53.3,0.5,80-7.7s53.3-20.8,80-15.8
	s53.3,27.6,80,26.3s53.3-26.7,66.7-39.3L960,0v67.9h-13.3c-13.4,0-40,0-66.7,0s-53.3,0-80,0s-53.3,0-80,0s-53.3,0-80,0s-53.3,0-80,0
	s-53.3,0-80,0s-53.3,0-80,0s-53.3,0-80,0s-53.3,0-80,0s-53.3,0-80,0s-53.3,0-80,0s-53.3,0-66.7,0H0V16z"/>
</svg>
